<?xml version="1.0" standalone="no"?>
<!DOCTYPE svg PUBLIC "-//W3C//DTD SVG 20010904//EN"
 "http://www.w3.org/TR/2001/REC-SVG-20010904/DTD/svg10.dtd">
<svg version="1.0" xmlns="http://www.w3.org/2000/svg"
 width="268.000000pt" height="268.000000pt" viewBox="0 0 268.000000 268.000000"
 preserveAspectRatio="xMidYMid meet">
<metadata>
Created by potrace 1.14, written by Peter Selinger 2001-2017
</metadata>
<g transform="translate(0.000000,268.000000) scale(0.100000,-0.100000)"
fill="#000000" stroke="none">
<path d="M1087 2656 c-32 -14 -77 -36 -98 -51 -39 -25 -119 -134 -119 -161 0
-21 -27 -23 -345 -26 l-300 -3 -53 -28 c-59 -31 -103 -86 -121 -149 -9 -32
-11 -299 -9 -1053 3 -970 4 -1011 22 -1045 28 -51 55 -78 111 -108 l50 -27
448 -3 447 -3 0 140 c0 77 -4 142 -9 145 -4 3 -182 6 -395 6 -222 1 -384 5
-381 10 3 5 1 11 -5 15 -14 9 -14 1779 0 1806 10 17 22 19 113 19 56 0 108 -4
114 -8 9 -6 13 -62 15 -202 l3 -195 670 0 670 0 5 190 c3 105 9 196 13 203 9
13 171 17 214 6 l23 -6 2 -327 3 -326 138 -3 137 -3 0 373 0 373 -26 55 c-32
70 -47 86 -109 119 l-50 26 -318 3 -319 3 -19 43 c-40 92 -112 158 -212 195
-85 31 -230 30 -310 -3z m234 -304 c52 -52 55 -79 18 -135 -53 -81 -128 -85
-185 -10 -38 49 -35 95 8 140 61 64 100 65 159 5z"/>
<path d="M2072 923 l-352 -358 -185 185 c-230 230 -216 226 -341 95 -72 -76
-84 -94 -79 -115 4 -15 119 -138 283 -302 207 -207 284 -278 306 -282 28 -5
59 25 488 452 371 371 458 462 458 483 0 20 -19 45 -76 100 -77 76 -107 98
-134 99 -8 0 -174 -160 -368 -357z"/>
</g>
</svg>
